<?xml version="1.0" encoding="UTF-8"?>
<svg width="48px" height="48px" viewBox="0 0 48 48" version="1.1" xmlns="http://www.w3.org/2000/svg" xmlns:xlink="http://www.w3.org/1999/xlink">
    <!-- Generator: Sketch 62 (91390) - https://sketch.com -->
    <title>Icons (Decorative)/chat-message</title>
    <desc>Created with Sketch.</desc>
    <g id="Icons-(Decorative)/chat-message" stroke="none" stroke-width="1" fill="none" fill-rule="evenodd">
        <g id="icons8-chat_message" transform="translate(1.000000, 2.000000)" fill="#FFFFFF">
            <path d="M23,0.0703125 C10.415167,0.0703125 0.0703125,8.925365 0.0703125,20 C0.0703125,26.427318 3.6219606,32.086611 9,35.712891 C8.9916,35.928457 9.008101,36.280691 8.726562,37.324219 C8.377821,38.617047 7.6731852,40.431687 6.2402344,42.464844 C6.04080515,42.7480172 6.01534123,43.1185805 6.17416132,43.4263714 C6.33298141,43.7341623 6.6497462,43.9281356 6.9960938,43.9298212 C13.173361,43.956575 16.748849,39.904801 17.304688,39.251953 C19.133469,39.659115 21.028437,39.929687 23,39.929688 C35.583869,39.929688 45.929688,31.074694 45.929688,20 C45.929688,8.925306 35.583869,0.0703125 23,0.0703125 Z M23,1.9296875 C34.716131,1.9296875 44.070312,10.088694 44.070312,20 C44.070312,29.911306 34.716131,38.070312 23,38.070312 C20.998026,38.070312 19.063469,37.831229 17.230469,37.384766 C16.8799019,37.2989763 16.5113629,37.4238529 16.285156,37.705078 C16.285156,37.705078 13.394898,40.984833 8.787109,41.759766 C9.62014,40.264901 10.235187,38.869931 10.521484,37.808594 C10.920492,36.329422 10.925781,35.326172 10.925781,35.326172 C10.925843,35.007807 10.7629776,34.7115539 10.494141,34.541016 C5.2672049,31.227589 1.9296875,25.943265 1.9296875,20 C1.9296875,10.088635 11.282833,1.9296875 23,1.9296875 Z M12,13 C11.6393641,12.9948997 11.3039186,13.1843753 11.1221123,13.4958728 C10.9403059,13.8073704 10.9403059,14.1926296 11.1221123,14.5041272 C11.3039186,14.8156247 11.6393641,15.0051003 12,15 L34,15 C34.3606359,15.0051003 34.6960814,14.8156247 34.8778877,14.5041272 C35.0596941,14.1926296 35.0596941,13.8073704 34.8778877,13.4958728 C34.6960814,13.1843753 34.3606359,12.9948997 34,13 L12,13 Z M8,19 C7.63936408,18.9948997 7.30391864,19.1843753 7.12211228,19.4958728 C6.94030592,19.8073704 6.94030592,20.1926296 7.12211228,20.5041272 C7.30391864,20.8156247 7.63936408,21.0051003 8,21 L25,21 C25.3606359,21.0051003 25.6960814,20.8156247 25.8778877,20.5041272 C26.0596941,20.1926296 26.0596941,19.8073704 25.8778877,19.4958728 C25.6960814,19.1843753 25.3606359,18.9948997 25,19 L8,19 Z M31,19 C30.6393641,18.9948997 30.3039186,19.1843753 30.1221123,19.4958728 C29.9403059,19.8073704 29.9403059,20.1926296 30.1221123,20.5041272 C30.3039186,20.8156247 30.6393641,21.0051003 31,21 L38,21 C38.3606359,21.0051003 38.6960814,20.8156247 38.8778877,20.5041272 C39.0596941,20.1926296 39.0596941,19.8073704 38.8778877,19.4958728 C38.6960814,19.1843753 38.3606359,18.9948997 38,19 L31,19 Z M12,25 C11.6393641,24.9948997 11.3039186,25.1843753 11.1221123,25.4958728 C10.9403059,25.8073704 10.9403059,26.1926296 11.1221123,26.5041272 C11.3039186,26.8156247 11.6393641,27.0051003 12,27 L34,27 C34.3606359,27.0051003 34.6960814,26.8156247 34.8778877,26.5041272 C35.0596941,26.1926296 35.0596941,25.8073704 34.8778877,25.4958728 C34.6960814,25.1843753 34.3606359,24.9948997 34,25 L12,25 Z" id="Shape"></path>
        </g>
    </g>
</svg>