<?xml version="1.0" encoding="UTF-8"?>
<svg width="32px" height="32px" viewBox="0 0 32 32" version="1.1" xmlns="http://www.w3.org/2000/svg" xmlns:xlink="http://www.w3.org/1999/xlink">
    <!-- Generator: Sketch 52.3 (67297) - http://www.bohemiancoding.com/sketch -->
    <title>linkedin-icon-white</title>
    <desc>Created with Sketch.</desc>
    <g id="linkedin-icon" stroke="none" stroke-width="1" fill="none" fill-rule="evenodd">
        <path d="M25.3333333,4 L6.66666667,4 C5.19333333,4 4,5.19333333 4,6.66666667 L4,25.3333333 C4,26.8066667 5.19333333,28 6.66666667,28 L25.3333333,28 C26.8066667,28 28,26.8066667 28,25.3333333 L28,6.66666667 C28,5.19333333 26.8066667,4 25.3333333,4 Z M12,22.6666667 L8.636,22.6666667 L8.636,13.3333333 L12,13.3333333 L12,22.6666667 Z M10.2586667,11.6226667 C9.23066667,11.6226667 8.544,10.9373333 8.544,10.0226667 C8.544,9.108 9.22933333,8.42266667 10.372,8.42266667 C11.4,8.42266667 12.0866667,9.108 12.0866667,10.0226667 C12.0866667,10.9373333 11.4013333,11.6226667 10.2586667,11.6226667 Z M24,22.6666667 L20.744,22.6666667 L20.744,17.5653333 C20.744,16.1546667 19.876,15.8293333 19.5506667,15.8293333 C19.2253333,15.8293333 18.14,16.0466667 18.14,17.5653333 C18.14,17.7826667 18.14,22.6666667 18.14,22.6666667 L14.776,22.6666667 L14.776,13.3333333 L18.14,13.3333333 L18.14,14.636 C18.5733333,13.876 19.4413333,13.3333333 21.0693333,13.3333333 C22.6973333,13.3333333 24,14.636 24,17.5653333 L24,22.6666667 Z" id="icon" fill="#FFFFFF" fill-rule="nonzero"></path>
    </g>
</svg>