<?xml version="1.0" encoding="UTF-8"?>
<svg width="48px" height="48px" viewBox="0 0 48 48" version="1.1" xmlns="http://www.w3.org/2000/svg" xmlns:xlink="http://www.w3.org/1999/xlink">
    <!-- Generator: Sketch 62 (91390) - https://sketch.com -->
    <title>Icons (Decorative)/resize</title>
    <desc>Created with Sketch.</desc>
    <g id="Icons-(Decorative)/resize" stroke="none" stroke-width="1" fill="none" fill-rule="evenodd">
        <g id="icons8-resize" transform="translate(3.000000, 3.000000)" fill="#FFFFFF">
            <path d="M1,0 L0.1875,0.40625 L0.03125,1.28125 L0.65625,1.9375 L1,2 L3,2 L3.8125,1.59375 L3.96875,0.71875 L3.34375,0.0625 L3,0 L1,0 Z M7,0 L6.1875,0.40625 L6.03125,1.28125 L6.65625,1.9375 L7,2 L9,2 L9.8125,1.59375 L9.96875,0.71875 L9.34375,0.0625 L9,0 L7,0 Z M13,0 L12.1875,0.40625 L12.03125,1.28125 L12.65625,1.9375 L13,2 L15,2 L15.8125,1.59375 L15.96875,0.71875 L15.34375,0.0625 L15,0 L13,0 Z M19,0 L18.1875,0.40625 L18.03125,1.28125 L18.65625,1.9375 L19,2 L21,2 L21.8125,1.59375 L21.96875,0.71875 L21.34375,0.0625 L21,0 L19,0 Z M25,0 L24.1875,0.40625 L24.03125,1.28125 L24.65625,1.9375 L25,2 L27,2 L27.8125,1.59375 L27.96875,0.71875 L27.34375,0.0625 L27,0 L25,0 Z M31,0 L30.1875,0.40625 L30.03125,1.28125 L30.65625,1.9375 L31,2 L33,2 L33.8125,1.59375 L33.96875,0.71875 L33.34375,0.0625 L33,0 L31,0 Z M37,0 L36.1875,0.40625 L36.03125,1.28125 L36.65625,1.9375 L37,2 L39,2 L39.8125,1.59375 L39.96875,0.71875 L39.34375,0.0625 L39,0 L37,0 Z M40.71875,2.03125 L40.0625,2.65625 L40,3 L40,5 L40.40625,5.8125 L41.28125,5.96875 L41.9375,5.34375 L42,5 L42,3 L41.59375,2.1875 L40.71875,2.03125 Z M0.71875,4.03125 L0.0625,4.65625 L0,5 L0,7 L0.40625,7.8125 L1.28125,7.96875 L1.9375,7.34375 L2,7 L2,5 L1.59375,4.1875 L0.71875,4.03125 Z M23.71875,6 C23.269531,6.078125 22.929688,6.453125 22.890625,6.910156 C22.855469,7.363281 23.132813,7.785156 23.5625,7.9375 C23.59375,7.949219 23.625,7.960938 23.65625,7.96875 C23.769531,8 23.882813,8.007813 24,8 L32.59375,8 L22.78125,17.78125 L20.5625,20 L0,20 L0,42 L22,42 L22,21.4375 L34,9.40625 L34,18 C33.992188,18.308594 34.128906,18.601563 34.367188,18.796875 C34.601563,18.992188 34.917969,19.066406 35.21875,19 C35.320313,18.972656 35.414063,18.929688 35.5,18.875 C35.519531,18.867188 35.542969,18.855469 35.5625,18.84375 C35.621094,18.796875 35.671875,18.746094 35.71875,18.6875 C35.898438,18.503906 35.996094,18.257813 36,18 L36,6 L24,6 C23.96875,6 23.9375,6 23.90625,6 C23.875,6 23.84375,6 23.8125,6 C23.78125,6 23.75,6 23.71875,6 Z M40.71875,8.03125 L40.0625,8.65625 L40,9 L40,11 L40.40625,11.8125 L41.28125,11.96875 L41.9375,11.34375 L42,11 L42,9 L41.59375,8.1875 L40.71875,8.03125 Z M0.71875,10.03125 L0.0625,10.65625 L0,11 L0,13 L0.40625,13.8125 L1.28125,13.96875 L1.9375,13.34375 L2,13 L2,11 L1.59375,10.1875 L0.71875,10.03125 Z M40.71875,14.03125 L40.0625,14.65625 L40,15 L40,17 L40.40625,17.8125 L41.28125,17.96875 L41.9375,17.34375 L42,17 L42,15 L41.59375,14.1875 L40.71875,14.03125 Z M0.71875,16.03125 L0.0625,16.65625 L0,17 L0,19 L0.40625,19.8125 L1.28125,19.96875 L1.9375,19.34375 L2,19 L2,17 L1.59375,16.1875 L0.71875,16.03125 Z M40.71875,20.03125 L40.0625,20.65625 L40,21 L40,23 L40.40625,23.8125 L41.28125,23.96875 L41.9375,23.34375 L42,23 L42,21 L41.59375,20.1875 L40.71875,20.03125 Z M2,22 L20,22 L20,40 L2,40 L2,22 Z M40.71875,26.03125 L40.0625,26.65625 L40,27 L40,29 L40.40625,29.8125 L41.28125,29.96875 L41.9375,29.34375 L42,29 L42,27 L41.59375,26.1875 L40.71875,26.03125 Z M40.71875,32.03125 L40.0625,32.65625 L40,33 L40,35 L40.40625,35.8125 L41.28125,35.96875 L41.9375,35.34375 L42,35 L42,33 L41.59375,32.1875 L40.71875,32.03125 Z M40.71875,38.03125 L40.0625,38.65625 L40,39 L40,41 L40.40625,41.8125 L41.28125,41.96875 L41.9375,41.34375 L42,41 L42,39 L41.59375,38.1875 L40.71875,38.03125 Z M23,40 L22.1875,40.40625 L22.03125,41.28125 L22.65625,41.9375 L23,42 L25,42 L25.8125,41.59375 L25.96875,40.71875 L25.34375,40.0625 L25,40 L23,40 Z M29,40 L28.1875,40.40625 L28.03125,41.28125 L28.65625,41.9375 L29,42 L31,42 L31.8125,41.59375 L31.96875,40.71875 L31.34375,40.0625 L31,40 L29,40 Z M35,40 L34.1875,40.40625 L34.03125,41.28125 L34.65625,41.9375 L35,42 L37,42 L37.8125,41.59375 L37.96875,40.71875 L37.34375,40.0625 L37,40 L35,40 Z" id="Shape"></path>
        </g>
    </g>
</svg>