<?xml version="1.0" encoding="UTF-8"?>
<svg width="48px" height="48px" viewBox="0 0 48 48" version="1.1" xmlns="http://www.w3.org/2000/svg" xmlns:xlink="http://www.w3.org/1999/xlink">
    <!-- Generator: Sketch 62 (91390) - https://sketch.com -->
    <title>Icons (Decorative)/send-backward</title>
    <desc>Created with Sketch.</desc>
    <g id="Icons-(Decorative)/send-backward" stroke="none" stroke-width="1" fill="none" fill-rule="evenodd">
        <g id="icons8-send_backward" transform="translate(2.000000, 2.000000)" fill="#FFFFFF">
            <path d="M3,0 C1.355469,0 0,1.355469 0,3 L0,26 C0,27.644531 1.355469,29 3,29 L13,29 L13,27 L3,27 C2.433594,27 2,26.566406 2,26 L2,3 C2,2.433594 2.433594,2 3,2 L26,2 C26.566406,2 27,2.433594 27,3 L27,13 L29,13 L29,3 C29,1.355469 27.644531,0 26,0 L3,0 Z M18,15 C16.355469,15 15,16.355469 15,18 L15,41 C15,42.644531 16.355469,44 18,44 L41,44 C42.644531,44 44,42.644531 44,41 L44,18 C44,16.355469 42.644531,15 41,15 L18,15 Z M18,17 L41,17 C41.566406,17 42,17.433594 42,18 L42,41 C42,41.566406 41.566406,42 41,42 L18,42 C17.433594,42 17,41.566406 17,41 L17,18 C17,17.433594 17.433594,17 18,17 Z M19,18 C18.449219,18 18,18.449219 18,19 C18,19.550781 18.449219,20 19,20 C19.550781,20 20,19.550781 20,19 C20,18.449219 19.550781,18 19,18 Z M25,18 C24.449219,18 24,18.449219 24,19 C24,19.550781 24.449219,20 25,20 C25.550781,20 26,19.550781 26,19 C26,18.449219 25.550781,18 25,18 Z M31,18 C30.449219,18 30,18.449219 30,19 C30,19.550781 30.449219,20 31,20 C31.550781,20 32,19.550781 32,19 C32,18.449219 31.550781,18 31,18 Z M37,18 C36.449219,18 36,18.449219 36,19 C36,19.550781 36.449219,20 37,20 C37.550781,20 38,19.550781 38,19 C38,18.449219 37.550781,18 37,18 Z M22,21 C21.449219,21 21,21.449219 21,22 C21,22.550781 21.449219,23 22,23 C22.550781,23 23,22.550781 23,22 C23,21.449219 22.550781,21 22,21 Z M28,21 C27.449219,21 27,21.449219 27,22 C27,22.550781 27.449219,23 28,23 C28.550781,23 29,22.550781 29,22 C29,21.449219 28.550781,21 28,21 Z M34,21 C33.449219,21 33,21.449219 33,22 C33,22.550781 33.449219,23 34,23 C34.550781,23 35,22.550781 35,22 C35,21.449219 34.550781,21 34,21 Z M40,21 C39.449219,21 39,21.449219 39,22 C39,22.550781 39.449219,23 40,23 C40.550781,23 41,22.550781 41,22 C41,21.449219 40.550781,21 40,21 Z M19,24 C18.449219,24 18,24.449219 18,25 C18,25.550781 18.449219,26 19,26 C19.550781,26 20,25.550781 20,25 C20,24.449219 19.550781,24 19,24 Z M25,24 C24.449219,24 24,24.449219 24,25 C24,25.550781 24.449219,26 25,26 C25.550781,26 26,25.550781 26,25 C26,24.449219 25.550781,24 25,24 Z M31,24 C30.449219,24 30,24.449219 30,25 C30,25.550781 30.449219,26 31,26 C31.550781,26 32,25.550781 32,25 C32,24.449219 31.550781,24 31,24 Z M37,24 C36.449219,24 36,24.449219 36,25 C36,25.550781 36.449219,26 37,26 C37.550781,26 38,25.550781 38,25 C38,24.449219 37.550781,24 37,24 Z M22,27 C21.449219,27 21,27.449219 21,28 C21,28.550781 21.449219,29 22,29 C22.550781,29 23,28.550781 23,28 C23,27.449219 22.550781,27 22,27 Z M28,27 C27.449219,27 27,27.449219 27,28 C27,28.550781 27.449219,29 28,29 C28.550781,29 29,28.550781 29,28 C29,27.449219 28.550781,27 28,27 Z M34,27 C33.449219,27 33,27.449219 33,28 C33,28.550781 33.449219,29 34,29 C34.550781,29 35,28.550781 35,28 C35,27.449219 34.550781,27 34,27 Z M40,27 C39.449219,27 39,27.449219 39,28 C39,28.550781 39.449219,29 40,29 C40.550781,29 41,28.550781 41,28 C41,27.449219 40.550781,27 40,27 Z M19,30 C18.449219,30 18,30.449219 18,31 C18,31.550781 18.449219,32 19,32 C19.550781,32 20,31.550781 20,31 C20,30.449219 19.550781,30 19,30 Z M25,30 C24.449219,30 24,30.449219 24,31 C24,31.550781 24.449219,32 25,32 C25.550781,32 26,31.550781 26,31 C26,30.449219 25.550781,30 25,30 Z M31,30 C30.449219,30 30,30.449219 30,31 C30,31.550781 30.449219,32 31,32 C31.550781,32 32,31.550781 32,31 C32,30.449219 31.550781,30 31,30 Z M37,30 C36.449219,30 36,30.449219 36,31 C36,31.550781 36.449219,32 37,32 C37.550781,32 38,31.550781 38,31 C38,30.449219 37.550781,30 37,30 Z M22,33 C21.449219,33 21,33.449219 21,34 C21,34.550781 21.449219,35 22,35 C22.550781,35 23,34.550781 23,34 C23,33.449219 22.550781,33 22,33 Z M28,33 C27.449219,33 27,33.449219 27,34 C27,34.550781 27.449219,35 28,35 C28.550781,35 29,34.550781 29,34 C29,33.449219 28.550781,33 28,33 Z M34,33 C33.449219,33 33,33.449219 33,34 C33,34.550781 33.449219,35 34,35 C34.550781,35 35,34.550781 35,34 C35,33.449219 34.550781,33 34,33 Z M40,33 C39.449219,33 39,33.449219 39,34 C39,34.550781 39.449219,35 40,35 C40.550781,35 41,34.550781 41,34 C41,33.449219 40.550781,33 40,33 Z M19,36 C18.449219,36 18,36.449219 18,37 C18,37.550781 18.449219,38 19,38 C19.550781,38 20,37.550781 20,37 C20,36.449219 19.550781,36 19,36 Z M25,36 C24.449219,36 24,36.449219 24,37 C24,37.550781 24.449219,38 25,38 C25.550781,38 26,37.550781 26,37 C26,36.449219 25.550781,36 25,36 Z M31,36 C30.449219,36 30,36.449219 30,37 C30,37.550781 30.449219,38 31,38 C31.550781,38 32,37.550781 32,37 C32,36.449219 31.550781,36 31,36 Z M37,36 C36.449219,36 36,36.449219 36,37 C36,37.550781 36.449219,38 37,38 C37.550781,38 38,37.550781 38,37 C38,36.449219 37.550781,36 37,36 Z M22,39 C21.449219,39 21,39.449219 21,40 C21,40.550781 21.449219,41 22,41 C22.550781,41 23,40.550781 23,40 C23,39.449219 22.550781,39 22,39 Z M28,39 C27.449219,39 27,39.449219 27,40 C27,40.550781 27.449219,41 28,41 C28.550781,41 29,40.550781 29,40 C29,39.449219 28.550781,39 28,39 Z M34,39 C33.449219,39 33,39.449219 33,40 C33,40.550781 33.449219,41 34,41 C34.550781,41 35,40.550781 35,40 C35,39.449219 34.550781,39 34,39 Z M40,39 C39.449219,39 39,39.449219 39,40 C39,40.550781 39.449219,41 40,41 C40.550781,41 41,40.550781 41,40 C41,39.449219 40.550781,39 40,39 Z" id="Shape"></path>
        </g>
    </g>
</svg>