<?xml version="1.0" encoding="UTF-8"?>
<svg width="48px" height="48px" viewBox="0 0 48 48" version="1.1" xmlns="http://www.w3.org/2000/svg" xmlns:xlink="http://www.w3.org/1999/xlink">
    <!-- Generator: Sketch 62 (91390) - https://sketch.com -->
    <title>Icons (Decorative)/module</title>
    <desc>Created with Sketch.</desc>
    <g id="Icons-(Decorative)/module" stroke="none" stroke-width="1" fill="none" fill-rule="evenodd">
        <g id="icons8-module" transform="translate(0.000000, 1.000000)" fill="#FFFFFF">
            <path d="M23.8125,-8.32667268e-17 C23.703125,0.023438 23.597656,0.066406 23.5,0.125 L15.5,4.5625 C15.46875,4.582031 15.4375,4.601563 15.40625,4.625 C15.394531,4.636719 15.386719,4.644531 15.375,4.65625 C15.363281,4.667969 15.355469,4.675781 15.34375,4.6875 C15.320313,4.707031 15.300781,4.726563 15.28125,4.75 C15.234375,4.796875 15.191406,4.851563 15.15625,4.90625 C15.144531,4.925781 15.132813,4.949219 15.125,4.96875 C15.113281,4.988281 15.101563,5.011719 15.09375,5.03125 C15.082031,5.042969 15.074219,5.050781 15.0625,5.0625 C15.0625,5.074219 15.0625,5.082031 15.0625,5.09375 C15.050781,5.113281 15.039063,5.136719 15.03125,5.15625 C15.03125,5.167969 15.03125,5.175781 15.03125,5.1875 C15.03125,5.207031 15.03125,5.230469 15.03125,5.25 C15.019531,5.289063 15.007813,5.332031 15,5.375 C14.992188,5.4375 14.992188,5.5 15,5.5625 L15,8.84375 L5.5,14.125 C5.1875,14.304688 4.996094,14.640625 5,15 L5,23.625 L1.625,25.5 L1.5,25.5625 C1.46875,25.582031 1.4375,25.601563 1.40625,25.625 C1.394531,25.636719 1.386719,25.644531 1.375,25.65625 C1.363281,25.667969 1.355469,25.675781 1.34375,25.6875 C1.320313,25.707031 1.300781,25.726563 1.28125,25.75 C1.257813,25.769531 1.238281,25.789063 1.21875,25.8125 C1.195313,25.84375 1.175781,25.875 1.15625,25.90625 C1.144531,25.925781 1.132813,25.949219 1.125,25.96875 C1.113281,25.988281 1.101563,26.011719 1.09375,26.03125 C1.082031,26.042969 1.074219,26.050781 1.0625,26.0625 C1.0625,26.074219 1.0625,26.082031 1.0625,26.09375 C1.050781,26.113281 1.039063,26.136719 1.03125,26.15625 C1.03125,26.167969 1.03125,26.175781 1.03125,26.1875 C1.03125,26.207031 1.03125,26.230469 1.03125,26.25 C1.019531,26.289063 1.007813,26.332031 1,26.375 C0.992188,26.4375 0.992188,26.5 1,26.5625 L1,35.34375 C0.996094,35.703125 1.1875,36.039063 1.5,36.21875 L9.4375,40.625 L9.5,40.65625 C9.511719,40.667969 9.519531,40.675781 9.53125,40.6875 C9.550781,40.6875 9.574219,40.6875 9.59375,40.6875 C9.605469,40.699219 9.613281,40.707031 9.625,40.71875 C9.644531,40.730469 9.667969,40.742188 9.6875,40.75 C9.699219,40.75 9.707031,40.75 9.71875,40.75 C9.738281,40.75 9.761719,40.75 9.78125,40.75 C9.792969,40.761719 9.800781,40.769531 9.8125,40.78125 C9.832031,40.78125 9.855469,40.78125 9.875,40.78125 C9.886719,40.78125 9.894531,40.78125 9.90625,40.78125 C9.925781,40.78125 9.949219,40.78125 9.96875,40.78125 C9.980469,40.78125 9.988281,40.78125 10,40.78125 C10.019531,40.78125 10.042969,40.78125 10.0625,40.78125 C10.082031,40.78125 10.105469,40.78125 10.125,40.78125 C10.210938,40.769531 10.292969,40.75 10.375,40.71875 C10.386719,40.71875 10.394531,40.71875 10.40625,40.71875 C10.417969,40.707031 10.425781,40.699219 10.4375,40.6875 C10.457031,40.679688 10.480469,40.667969 10.5,40.65625 L10.59375,40.59375 C10.613281,40.585938 10.636719,40.574219 10.65625,40.5625 L12.3125,39.65625 L23.5,45.875 C23.808594,46.054688 24.191406,46.054688 24.5,45.875 L35.6875,39.65625 L37.4375,40.625 C37.46875,40.648438 37.5,40.667969 37.53125,40.6875 C37.550781,40.6875 37.574219,40.6875 37.59375,40.6875 C37.605469,40.699219 37.613281,40.707031 37.625,40.71875 C37.644531,40.730469 37.667969,40.742188 37.6875,40.75 C37.699219,40.75 37.707031,40.75 37.71875,40.75 C37.738281,40.75 37.761719,40.75 37.78125,40.75 C37.792969,40.761719 37.800781,40.769531 37.8125,40.78125 C37.832031,40.78125 37.855469,40.78125 37.875,40.78125 C37.886719,40.78125 37.894531,40.78125 37.90625,40.78125 C37.925781,40.78125 37.949219,40.78125 37.96875,40.78125 C37.980469,40.78125 37.988281,40.78125 38,40.78125 C38.019531,40.78125 38.042969,40.78125 38.0625,40.78125 C38.082031,40.78125 38.105469,40.78125 38.125,40.78125 C38.210938,40.769531 38.292969,40.75 38.375,40.71875 C38.386719,40.71875 38.394531,40.71875 38.40625,40.71875 C38.417969,40.707031 38.425781,40.699219 38.4375,40.6875 C38.457031,40.679688 38.480469,40.667969 38.5,40.65625 L38.59375,40.59375 C38.613281,40.585938 38.636719,40.574219 38.65625,40.5625 L46.5,36.21875 C46.8125,36.039063 47.003906,35.703125 47,35.34375 L47,26.96875 C47.261719,26.652344 47.300781,26.207031 47.097656,25.847656 C46.898438,25.488281 46.5,25.289063 46.09375,25.34375 L43,23.625 L43,15 C43.003906,14.640625 42.8125,14.304688 42.5,14.125 L33,8.84375 L33,5.96875 C33.261719,5.652344 33.300781,5.207031 33.097656,4.847656 C32.898438,4.488281 32.5,4.289063 32.09375,4.34375 L24.5,0.125 C24.320313,0.023438 24.113281,-0.019531 23.90625,-8.32667268e-17 C23.875,-8.32667268e-17 23.84375,-8.32667268e-17 23.8125,-8.32667268e-17 Z M24,2.15625 L29.9375,5.4375 L24,8.65625 L18.0625,5.4375 L24,2.15625 Z M17,7.125 L23,10.375 L23,17.0625 L17,13.75 L17,9.71875 C17.058594,9.527344 17.058594,9.316406 17,9.125 L17,7.125 Z M31,7.125 L31,9.125 C30.945313,9.308594 30.945313,9.503906 31,9.6875 L31,13.75 L25,17.0625 L25,10.375 L31,7.125 Z M15,11.15625 L15,14.34375 C14.996094,14.703125 15.1875,15.039063 15.5,15.21875 L23.5,19.65625 C23.511719,19.667969 23.519531,19.675781 23.53125,19.6875 C23.550781,19.6875 23.574219,19.6875 23.59375,19.6875 C23.605469,19.699219 23.613281,19.707031 23.625,19.71875 C23.644531,19.730469 23.667969,19.742188 23.6875,19.75 C23.699219,19.75 23.707031,19.75 23.71875,19.75 C23.738281,19.75 23.761719,19.75 23.78125,19.75 C23.792969,19.761719 23.800781,19.769531 23.8125,19.78125 C23.832031,19.78125 23.855469,19.78125 23.875,19.78125 C23.886719,19.78125 23.894531,19.78125 23.90625,19.78125 C23.925781,19.78125 23.949219,19.78125 23.96875,19.78125 C23.980469,19.78125 23.988281,19.78125 24,19.78125 C24.019531,19.78125 24.042969,19.78125 24.0625,19.78125 C24.082031,19.78125 24.105469,19.78125 24.125,19.78125 C24.210938,19.769531 24.292969,19.75 24.375,19.71875 C24.386719,19.71875 24.394531,19.71875 24.40625,19.71875 C24.417969,19.707031 24.425781,19.699219 24.4375,19.6875 C24.457031,19.679688 24.480469,19.667969 24.5,19.65625 L24.59375,19.59375 C24.613281,19.585938 24.636719,19.574219 24.65625,19.5625 L32.5,15.21875 C32.8125,15.039063 33.003906,14.703125 33,14.34375 L33,11.15625 L41,15.59375 L41,22.5 L38.5,21.125 C38.320313,21.023438 38.113281,20.980469 37.90625,21 C37.875,21 37.84375,21 37.8125,21 C37.703125,21.023438 37.597656,21.066406 37.5,21.125 L29.5,25.5625 C29.480469,25.570313 29.457031,25.582031 29.4375,25.59375 C29.414063,25.613281 29.394531,25.632813 29.375,25.65625 C29.363281,25.667969 29.355469,25.675781 29.34375,25.6875 C29.320313,25.707031 29.300781,25.726563 29.28125,25.75 C29.203125,25.832031 29.140625,25.925781 29.09375,26.03125 C29.082031,26.042969 29.074219,26.050781 29.0625,26.0625 C29.0625,26.074219 29.0625,26.082031 29.0625,26.09375 C29.050781,26.113281 29.039063,26.136719 29.03125,26.15625 C29.011719,26.226563 29.003906,26.300781 29,26.375 C29,26.394531 29,26.417969 29,26.4375 L29,35.34375 C28.996094,35.703125 29.1875,36.039063 29.5,36.21875 L33.625,38.5 L24,43.84375 L14.375,38.5 L18.5,36.21875 C18.8125,36.039063 19.003906,35.703125 19,35.34375 L19,26.96875 C19.261719,26.652344 19.300781,26.207031 19.097656,25.847656 C18.898438,25.488281 18.5,25.289063 18.09375,25.34375 L10.5,21.125 C10.320313,21.023438 10.113281,20.980469 9.90625,21 C9.875,21 9.84375,21 9.8125,21 C9.703125,21.023438 9.597656,21.066406 9.5,21.125 L7,22.5 L7,15.59375 L15,11.15625 Z M10,23.15625 L15.9375,26.4375 L10,29.65625 L4.0625,26.4375 L6.3125,25.1875 L6.5,25.09375 C6.519531,25.085938 6.542969,25.074219 6.5625,25.0625 L6.59375,25.03125 C6.613281,25.023438 6.636719,25.011719 6.65625,25 L10,23.15625 Z M38,23.15625 L41.4375,25.0625 C41.496094,25.101563 41.558594,25.132813 41.625,25.15625 L43.9375,26.4375 L38,29.65625 L32.0625,26.4375 L38,23.15625 Z M3,28.125 L9,31.375 L9,38.0625 L3,34.75 L3,28.125 Z M17,28.125 L17,34.75 L11.9375,37.5625 L11.90625,37.5625 C11.886719,37.570313 11.863281,37.582031 11.84375,37.59375 C11.777344,37.617188 11.714844,37.648438 11.65625,37.6875 C11.632813,37.707031 11.613281,37.726563 11.59375,37.75 L11,38.0625 L11,31.375 L17,28.125 Z M31,28.125 L37,31.375 L37,38.0625 L36.3125,37.6875 C36.300781,37.675781 36.292969,37.667969 36.28125,37.65625 L36.21875,37.625 C36.1875,37.613281 36.15625,37.601563 36.125,37.59375 L31,34.75 L31,28.125 Z M45,28.125 L45,34.75 L39,38.0625 L39,31.375 L45,28.125 Z" id="Shape"></path>
        </g>
    </g>
</svg>