<?xml version="1.0" encoding="UTF-8"?>
<svg width="48px" height="48px" viewBox="0 0 48 48" version="1.1" xmlns="http://www.w3.org/2000/svg" xmlns:xlink="http://www.w3.org/1999/xlink">
    <!-- Generator: Sketch 62 (91390) - https://sketch.com -->
    <title>Icons (Decorative)/categorize</title>
    <desc>Created with Sketch.</desc>
    <g id="Icons-(Decorative)/categorize" stroke="none" stroke-width="1" fill="none" fill-rule="evenodd">
        <g id="icons8-categorize" transform="translate(3.000000, 3.000000)" fill="#FFFFFF">
            <path d="M2,0 C1.4777778,0 0.9453899,0.1913289 0.5683594,0.5683594 C0.1913289,0.9453899 0,1.4777778 0,2 L0,18 C0,18.522222 0.1913289,19.05461 0.5683594,19.431641 C0.9453899,19.808671 1.4777778,20 2,20 L18,20 C18.522222,20 19.05461,19.808671 19.431641,19.431641 C19.808671,19.05461 20,18.522222 20,18 L20,2 C20,1.4777778 19.808671,0.9453899 19.431641,0.5683594 C19.05461,0.1913289 18.522222,0 18,0 L2,0 Z M24,0 C23.477778,0 22.94539,0.1913289 22.568359,0.5683594 C22.191329,0.9453899 22,1.4777778 22,2 L22,18 C22,18.522222 22.191329,19.05461 22.568359,19.431641 C22.94539,19.808671 23.477778,20 24,20 L40,20 C40.522222,20 41.05461,19.808671 41.431641,19.431641 C41.808671,19.05461 42,18.522222 42,18 L42,2 C42,1.4777778 41.808671,0.9453899 41.431641,0.5683594 C41.05461,0.1913289 40.522222,0 40,0 L24,0 Z M2,2 L18,2 L18,18 L2,18 L2,2 Z M24,2 L40,2 L40,18 L24,18 L24,2 Z M4,3 C3.44771525,3 3,3.44771525 3,4 C3,4.55228475 3.44771525,5 4,5 C4.55228475,5 5,4.55228475 5,4 C5,3.44771525 4.55228475,3 4,3 Z M10,3 C9.44771525,3 9,3.44771525 9,4 C9,4.55228475 9.44771525,5 10,5 C10.5522847,5 11,4.55228475 11,4 C11,3.44771525 10.5522847,3 10,3 Z M16,3 C15.4477153,3 15,3.44771525 15,4 C15,4.55228475 15.4477153,5 16,5 C16.5522847,5 17,4.55228475 17,4 C17,3.44771525 16.5522847,3 16,3 Z M7,6 C6.44771525,6 6,6.44771525 6,7 C6,7.55228475 6.44771525,8 7,8 C7.55228475,8 8,7.55228475 8,7 C8,6.44771525 7.55228475,6 7,6 Z M13,6 C12.4477153,6 12,6.44771525 12,7 C12,7.55228475 12.4477153,8 13,8 C13.5522847,8 14,7.55228475 14,7 C14,6.44771525 13.5522847,6 13,6 Z M4,9 C3.44771525,9 3,9.44771525 3,10 C3,10.5522847 3.44771525,11 4,11 C4.55228475,11 5,10.5522847 5,10 C5,9.44771525 4.55228475,9 4,9 Z M10,9 C9.44771525,9 9,9.44771525 9,10 C9,10.5522847 9.44771525,11 10,11 C10.5522847,11 11,10.5522847 11,10 C11,9.44771525 10.5522847,9 10,9 Z M16,9 C15.4477153,9 15,9.44771525 15,10 C15,10.5522847 15.4477153,11 16,11 C16.5522847,11 17,10.5522847 17,10 C17,9.44771525 16.5522847,9 16,9 Z M7,12 C6.44771525,12 6,12.4477153 6,13 C6,13.5522847 6.44771525,14 7,14 C7.55228475,14 8,13.5522847 8,13 C8,12.4477153 7.55228475,12 7,12 Z M13,12 C12.4477153,12 12,12.4477153 12,13 C12,13.5522847 12.4477153,14 13,14 C13.5522847,14 14,13.5522847 14,13 C14,12.4477153 13.5522847,12 13,12 Z M4,15 C3.44771525,15 3,15.4477153 3,16 C3,16.5522847 3.44771525,17 4,17 C4.55228475,17 5,16.5522847 5,16 C5,15.4477153 4.55228475,15 4,15 Z M10,15 C9.44771525,15 9,15.4477153 9,16 C9,16.5522847 9.44771525,17 10,17 C10.5522847,17 11,16.5522847 11,16 C11,15.4477153 10.5522847,15 10,15 Z M16,15 C15.4477153,15 15,15.4477153 15,16 C15,16.5522847 15.4477153,17 16,17 C16.5522847,17 17,16.5522847 17,16 C17,15.4477153 16.5522847,15 16,15 Z M28.980469,21.990234 C28.9432066,21.9914118 28.9060393,21.9946722 28.869141,22 L24,22 C23.477778,22 22.94539,22.191329 22.568359,22.568359 C22.191329,22.94539 22,23.477778 22,24 L22,28.847656 C21.9814993,28.9575602 21.9814993,29.0697838 22,29.179688 L22,34.847656 C21.9814993,34.9575602 21.9814993,35.0697838 22,35.179688 L22,40 C22,40.522222 22.191329,41.05461 22.568359,41.431641 C22.94539,41.808671 23.477778,42 24,42 L28.824219,42 C28.9328481,42.0180649 29.0437149,42.0180649 29.152344,42 L34.824219,42 C34.9328481,42.0180649 35.0437149,42.0180649 35.152344,42 L40,42 C40.522222,42 41.05461,41.808671 41.431641,41.431641 C41.808671,41.05461 42,40.522222 42,40 L42,35.126953 C42.0126992,35.0355952 42.0126992,34.9429198 42,34.851562 L42,29.126953 C42.0126992,29.0355952 42.0126992,28.9429198 42,28.851562 L42,24 C42,23.477778 41.808671,22.94539 41.431641,22.568359 C41.05461,22.191329 40.522222,22 40,22 L35.146484,22 C35.0915128,21.9921414 35.0359825,21.9888747 34.980469,21.990234 C34.9432066,21.9914118 34.9060393,21.9946722 34.869141,22 L29.146484,22 C29.0915128,21.9921414 29.0359825,21.9888747 28.980469,21.990234 L28.980469,21.990234 Z M2,22 C1.4777778,22 0.9453899,22.191329 0.5683594,22.568359 C0.1913289,22.94539 0,23.477778 0,24 L0,40 C0,40.522222 0.1913289,41.05461 0.5683594,41.431641 C0.9453899,41.808671 1.4777778,42 2,42 L18,42 C18.522222,42 19.05461,41.808671 19.431641,41.431641 C19.808671,41.05461 20,40.522222 20,40 L20,24 C20,23.477778 19.808671,22.94539 19.431641,22.568359 C19.05461,22.191329 18.522222,22 18,22 L2,22 Z M2,24 L18,24 L18,40 L2,40 L2,24 Z M24,24 L26.585938,24 L24,26.585938 L24,24 Z M29.414062,24 L32.585938,24 L24,32.585938 L24,29.414062 L29.414062,24 Z M35.414062,24 L38.585938,24 L24,38.585938 L24,35.414062 L35.414062,24 Z M6,25 C4.3549904,25 3,26.35499 3,28 C3,29.64501 4.3549904,31 6,31 C7.64501,31 9,29.64501 9,28 C9,26.35499 7.64501,25 6,25 Z M14,25 C12.35499,25 11,26.35499 11,28 C11,29.64501 12.35499,31 14,31 C15.64501,31 17,29.64501 17,28 C17,26.35499 15.64501,25 14,25 Z M40,25.414062 L40,28.585938 L28.585938,40 L25.414062,40 L40,25.414062 Z M6,27 C6.564129,27 7,27.435871 7,28 C7,28.564129 6.564129,29 6,29 C5.4358706,29 5,28.564129 5,28 C5,27.435871 5.4358706,27 6,27 Z M14,27 C14.564129,27 15,27.435871 15,28 C15,28.564129 14.564129,29 14,29 C13.435871,29 13,28.564129 13,28 C13,27.435871 13.435871,27 14,27 Z M40,31.414062 L40,34.585938 L34.585938,40 L31.414062,40 L40,31.414062 Z M6,33 C4.3549904,33 3,34.35499 3,36 C3,37.64501 4.3549904,39 6,39 C7.64501,39 9,37.64501 9,36 C9,34.35499 7.64501,33 6,33 Z M14,33 C12.35499,33 11,34.35499 11,36 C11,37.64501 12.35499,39 14,39 C15.64501,39 17,37.64501 17,36 C17,34.35499 15.64501,33 14,33 Z M6,35 C6.564129,35 7,35.435871 7,36 C7,36.564129 6.564129,37 6,37 C5.4358706,37 5,36.564129 5,36 C5,35.435871 5.4358706,35 6,35 Z M14,35 C14.564129,35 15,35.435871 15,36 C15,36.564129 14.564129,37 14,37 C13.435871,37 13,36.564129 13,36 C13,35.435871 13.435871,35 14,35 Z M40,37.414062 L40,40 L37.414062,40 L40,37.414062 Z" id="Shape"></path>
        </g>
    </g>
</svg>