<?xml version="1.0" encoding="UTF-8"?>
<svg width="24px" height="24px" viewBox="0 0 24 24" version="1.1" xmlns="http://www.w3.org/2000/svg" xmlns:xlink="http://www.w3.org/1999/xlink">
    <title>4. Icons/2. Social/vimeo</title>
    <g id="4.-Icons/2.-Social/vimeo" stroke="none" stroke-width="1" fill="none" fill-rule="evenodd">
        <path d="M22.9888981,7.16366262 C22.8943597,9.19183051 21.3946286,11.9624161 18.5025956,15.4837149 C15.5117272,19.1626204 12.9806622,21 10.9094005,21 C9.62882702,21 8.54162947,19.8801531 7.65640065,17.6404582 C7.0633842,15.5874043 6.4746647,13.5343503 5.88164716,11.4812964 C5.22417207,9.24160151 4.51513028,8.12175459 3.7631157,8.12175459 C3.59552366,8.12175459 3.01969612,8.44941392 2.03563086,9.10058421 L1,7.83971893 C2.08719755,6.93969366 3.1572073,6.03552 4.21002706,5.13549472 C5.65819148,3.94928541 6.74538903,3.32714847 7.47162081,3.26493446 C9.18191566,3.10732683 10.2390335,4.21473073 10.6343781,6.58714829 C11.0598025,9.14205951 11.3563119,10.7347314 11.5196058,11.3568694 C12.013787,13.4762847 12.5595348,14.5339176 13.1525512,14.5339176 C13.6123545,14.5339176 14.3042074,13.8495667 15.228111,12.472569 C16.1477165,11.0955714 16.6418976,10.0503805 16.7063562,9.32870155 C16.8395705,8.14249224 16.3453894,7.54524027 15.228111,7.54524027 C14.6995521,7.54524027 14.1581023,7.66137259 13.5994626,7.88948993 C14.6780662,4.53824275 16.745031,2.91239015 19.796061,3.00363645 C22.0564006,3.06585046 23.1221123,4.45114377 22.9888981,7.16366262 Z" id="icon" fill="#FFFFFF"></path>
    </g>
</svg>